<?xml version="1.0" encoding="UTF-8"?>
<svg width="18px" height="13.8461538px" viewBox="0 0 18 13.8461538" version="1.1" xmlns="http://www.w3.org/2000/svg" xmlns:xlink="http://www.w3.org/1999/xlink">
    <title>envelope</title>
    <g id="Page-1" stroke="none" stroke-width="1" fill="none" fill-rule="evenodd">
        <path d="M16.6868546,11.6718605 L12.0208224,6.93446857 L16.6868546,2.19694163 L16.6868546,11.6718605 Z M2.10675728,12.5712499 L6.78402565,7.8384695 L6.98466923,8.03280357 C8.08820917,9.09954046 9.84490982,9.09954046 10.8996261,8.03280357 L11.1002697,7.82938306 L15.8018831,12.5712499 L2.10675728,12.5712499 Z M1.26860241,2.19694163 L5.93022083,6.93446857 L1.25964056,11.6718605 L1.26860241,2.19694163 Z M15.7906469,1.2929407 L10.0501014,7.11076642 C9.4638212,7.70746663 8.42034102,7.69376976 7.82055035,7.08811866 L2.11571968,1.2929407 L15.7906469,1.2929407 Z M0,0 C0,0.542454881 0,13.2992241 0,13.8461538 C0.543877882,13.8461538 17.4559884,13.8461538 18,13.8461538 C18,13.2992241 18,0.542454881 18,0 C17.4559884,0 0.543877882,0 0,0 Z" id="path1306" fill="#8F8F8F" fill-rule="nonzero"></path>
    </g>
</svg>