<?xml version="1.0" encoding="UTF-8"?>
<svg width="18px" height="13.3958337px" viewBox="0 0 18 13.3958337" version="1.1" xmlns="http://www.w3.org/2000/svg" xmlns:xlink="http://www.w3.org/1999/xlink">
    <title>instagram</title>
    <g id="Page-1" stroke="none" stroke-width="1" fill="none" fill-rule="evenodd">
        <g id="g560" fill-rule="nonzero">
            <g id="g563">
                <path d="M17.995724,4.61886559 L17.995724,3.46708905 C17.995724,2.66088576 17.3409259,2.00608765 16.5347221,2.00608765 L1.45645833,2.00608765 C0.650254488,2.00608765 0,2.66088576 0,3.46708905 L0.00160375833,4.22678882 L0,4.22678882 L0,6.01719397 L0,6.82834154 L0,11.9371033 C0,12.7410351 0.650254488,13.3958337 1.45645833,13.3958337 L16.5347221,13.3958337 C17.3409259,13.3958337 17.995724,12.7410351 17.995724,11.9371033 L17.9987975,7.82604015 L18,7.82604015 L18,4.61886559 L17.995724,4.61886559 Z" id="path1688" fill="#8F8F8F"></path>
                <path d="M10.0921764,7.63200619 C10.0921764,10.0181441 8.15678054,11.9535405 5.77037501,11.9535405 C3.3845048,11.9535405 1.44897485,10.0181441 1.44897485,7.63200619 C1.44897485,6.99751998 1.59089214,6.39964928 1.84091806,5.85576611 C1.93165466,5.62297868 2.07116685,5.42199546 2.07116685,5.42199546 C2.83073252,4.16291217 4.19284607,3.31020481 5.77037501,3.31020481 C7.34857228,3.31020481 8.7154971,4.16772344 9.47011849,5.43188458 C9.47011849,5.43188458 9.66856251,5.78013002 9.70050029,5.85830531 C9.94518127,6.39964928 10.0921764,6.99751998 10.0921764,7.63200619 Z" id="path1689" fill="#FEFEFE"></path>
                <polygon id="path1690" fill="#8F8F8F" points="5.65772331 1.32509738 2.30943279 1.32509738 2.30943279 0 5.65772331 0"></polygon>
                <path d="M16.2516889,4.21689971 C16.2516889,4.63356543 15.9264281,4.97459506 15.5291394,4.97459506 L13.9047051,4.97459506 C13.5072829,4.97459506 13.1821556,4.63356543 13.1821556,4.21689971 C13.1821556,3.80036809 13.5072829,3.45947202 13.9047051,3.45947202 L15.5291394,3.45947202 C15.9264281,3.45947202 16.2516889,3.80036809 16.2516889,4.21689971 Z" id="path1691" fill="#FEFEFE"></path>
                <path d="M7.50224955,6.65742633 C7.45187019,6.56909538 7.39066683,6.48624292 7.32211301,6.4069992 C6.95128358,5.96053368 6.39657586,5.66894797 5.76984079,5.66894797 C5.14337283,5.66894797 4.58866512,5.95879637 4.21783569,6.40352457 C4.14928241,6.48450616 4.0880785,6.56749162 4.03409096,6.65742633 C3.84687216,6.96357778 3.73515588,7.31823771 3.73515588,7.70176256 C3.73515588,8.82373875 4.6463944,9.73310639 5.76984079,9.73310639 C6.88994666,9.73310639 7.80105107,8.82373875 7.80105107,7.70176256 C7.80105107,7.31823771 7.68960191,6.96357778 7.50224955,6.65742633 Z" id="path1692" fill="#8F8F8F"></path>
            </g>
        </g>
    </g>
</svg>