<?xml version="1.0" encoding="UTF-8"?>
<svg width="18px" height="8.4753534px" viewBox="0 0 18 8.4753534" version="1.1" xmlns="http://www.w3.org/2000/svg" xmlns:xlink="http://www.w3.org/1999/xlink">
    <title>key</title>
    <g id="Page-1" stroke="none" stroke-width="1" fill="none" fill-rule="evenodd">
        <path d="M16.0460951,6.01189189 L14.9864494,4.94371908 L13.9616871,5.98605325 L12.9454509,4.96103162 L11.9292136,5.98605325 L10.9215045,4.96103162 L9.59494525,6.29611693 L7.90690225,6.31317124 C7.18315997,7.59683751 5.8139671,8.4753534 4.23754758,8.4753534 C1.89501036,8.4753534 0,6.58034303 0,4.23728934 C0,1.89475212 1.89501036,0 4.23754758,0 C5.79691385,0 7.14000984,0.861203339 7.88080537,2.11903203 L16.4075789,2.13608528 L17.8372344,3.58305336 C18.0612561,3.80681679 18.0442018,3.99621442 17.846278,4.20318178 L16.0716755,6.0031065 M2.38594664,5.31424649 C3.01460222,5.31424649 3.52259069,4.79747263 3.52259069,4.16855775 C3.52259069,3.54842933 3.01460222,3.03165547 2.38594664,3.03165547 C1.75703177,3.03165547 1.2490433,3.54842933 1.2490433,4.16855775 C1.2490433,4.79747263 1.75703177,5.31424649 2.38594664,5.31424649 Z" id="path1093" fill="#8F8F8F" fill-rule="nonzero"></path>
    </g>
</svg>