<?xml version="1.0" encoding="UTF-8"?>
<svg width="17.6176379px" height="17.6176379px" viewBox="0 0 17.6176379 17.6176379" version="1.1" xmlns="http://www.w3.org/2000/svg" xmlns:xlink="http://www.w3.org/1999/xlink">
    <title>tel</title>
    <g id="Page-1" stroke="none" stroke-width="1" fill="none" fill-rule="evenodd">
        <g id="g222" transform="translate(8.8088, 8.8088) rotate(-45) translate(-8.8088, -8.8088)translate(5.3513, -0.1912)" fill="#8F8F8F" fill-rule="nonzero">
            <path d="M4.01636482,0 C3.17023836,0.0910696309 0.0931558923,1.50127989 0.00205517631,8.75425178 C-0.0934932554,16.3973798 3.17023836,18.0064006 4.02463804,17.9899794 L4.02463804,12.9429554 C3.31971942,12.9429554 3.17851158,12.1755823 3.01693179,10.5914438 C2.91310963,9.54227766 2.87998515,8.2483924 3.01693179,6.95861291 C3.11630572,6.05451072 3.28233374,5.17118559 4.02040792,5.17118559 L4.01636482,0 Z" id="path865"></path>
            <path d="M6.35114298,17.9980647 C6.67878187,17.9980647 6.91105883,17.7326938 6.91105883,17.4341052 L6.91510244,17.4299994 C6.91510244,17.4299994 6.91105883,13.4987043 6.91105883,13.4943499 C6.91105883,13.1833196 6.65797371,12.9387258 6.35114298,12.9387258 L4.9204665,12.9387258 L4.9204665,17.9980647 C4.9204665,17.9980647 6.34691286,18.0024191 6.34691286,17.9980647 L6.35114298,17.9980647 Z" id="path866"></path>
            <path d="M6.35114298,5.17118559 C6.67878187,5.17118559 6.91105883,4.90581473 6.91105883,4.60735047 L6.91510244,4.60735047 C6.91510244,4.60735047 6.91105883,0.559729338 6.91105883,0.555748408 C6.91105883,0.244469453 6.65797371,0 6.35114298,0 L4.9204665,0 L4.9204665,5.17118559 L6.34691286,5.17554005 L6.35114298,5.17118559 Z" id="path867"></path>
        </g>
    </g>
</svg>