<?xml version="1.0" encoding="UTF-8"?>
<svg width="18px" height="14.628174px" viewBox="0 0 18 14.628174" version="1.1" xmlns="http://www.w3.org/2000/svg" xmlns:xlink="http://www.w3.org/1999/xlink">
    <title>twitter</title>
    <g id="Page-1" stroke="none" stroke-width="1" fill="none" fill-rule="evenodd">
        <path d="M18,1.7316032 C17.3377783,2.0253634 16.6259673,2.22381371 15.8790559,2.31309405 C16.6414479,1.85607217 17.2270781,1.1323816 17.5027486,0.270000945 C16.7891377,0.693270999 15.9988461,1.0005313 15.1576156,1.16613238 C14.4840537,0.448381101 13.5242924,0 12.4621107,0 C10.4227077,0 8.76913497,1.65339225 8.76913497,3.69279626 C8.76913497,3.98223659 8.80180472,4.26411716 8.86480484,4.53438784 C5.79561915,4.3803977 3.07455509,2.91015467 1.25313209,0.675901284 C0.935251601,1.22130195 0.75309104,1.85562297 0.75309104,2.53242475 C0.75309104,3.81366639 1.40505255,4.94397832 2.39595336,5.60619899 C1.79061301,5.58702933 1.22118231,5.42088879 0.723301191,5.14431884 C0.722881379,5.15970809 0.722881379,5.1751876 0.722881379,5.19075843 C0.722881379,6.97996191 1.99584433,8.47243399 3.6852365,8.81191484 C3.37536602,8.89633481 3.04911554,8.9414247 2.71233407,8.9414247 C2.47437422,8.9414247 2.24307468,8.91820491 2.01753391,8.87518469 C2.48751433,10.342277 3.85128678,11.4099488 5.46732943,11.4396484 C4.2034575,12.4301903 2.61117516,13.0205917 0.88092165,13.0205917 C0.58284054,13.0205917 0.288900874,13.0030414 0,12.9689307 C1.63431286,14.0168031 3.57543576,14.628174 5.66091936,14.628174 C12.4535004,14.628174 16.1680765,9.00109571 16.1680765,4.12092669 C16.1680765,3.96081674 16.1644766,3.80160625 16.1573671,3.64311678 C16.8788074,3.12255532 17.5048487,2.47221324 18,1.7316032 L18,1.7316032 Z" id="path5" fill="#8F8F8F" fill-rule="nonzero"></path>
    </g>
</svg>