<?xml version="1.0" encoding="UTF-8"?>
<svg width="17.9196029px" height="18px" viewBox="0 0 17.9196029 18" version="1.1" xmlns="http://www.w3.org/2000/svg" xmlns:xlink="http://www.w3.org/1999/xlink">
    <title>WhatsApp</title>
    <g id="Page-1" stroke="none" stroke-width="1" fill="none" fill-rule="evenodd">
        <g id="WhatsApp" fill="#8F8F8F">
            <path d="M8.99733218,0 C11.3839365,0.00121264383 13.6240535,0.929976556 15.3087795,2.61591528 C16.9935056,4.301854 17.9204506,6.5428198 17.9196023,8.92614999 C17.917419,13.8437845 13.9146029,17.8455092 8.99721092,17.8455092 C7.50020211,17.8449029 6.03302433,17.4703172 4.72979601,16.7597079 L0,18 L1.2658789,13.3781293 C0.483834439,12.0222781 0.0730521295,10.4842182 0.0749413889,8.91899539 C0.0770028834,4.00099706 4.07921259,0 8.99733218,0 Z M9,1.5066893 C4.90938856,1.5066893 1.58274273,4.83214315 1.58127985,8.91960171 C1.579273,10.3153523 1.97231948,11.6831742 2.71498828,12.8649384 L2.89142796,13.1454229 L2.14213533,15.8809049 L4.94892075,15.1449514 L5.21994664,15.3055054 C6.35825541,15.9810693 7.66342397,16.3383142 8.99442184,16.3390417 C13.0846695,16.3390417 16.4113153,13.0132448 16.4129288,8.92554367 C16.4191264,6.95760555 15.6377127,5.06898163 14.2428656,3.68073783 C12.8557556,2.28490153 10.9678444,1.50205261 9,1.5066893 Z" id="Combined-Shape" fill-rule="nonzero"></path>
            <path d="M6.76728017,5.19023687 C6.60017785,4.81904659 6.4243445,4.8115282 6.26560942,4.80510119 L5.83827373,4.79988682 C5.6896036,4.79988682 5.44804495,4.85566844 5.24383573,5.0787949 C5.03962651,5.30192137 4.46349942,5.84118408 4.46349942,6.93802043 C4.46349942,8.03485677 5.26238918,9.09470748 5.37370988,9.24362015 C5.48503059,9.39253281 6.91595031,11.7151095 9.18201784,12.6087068 C11.0651324,13.3513299 11.4483279,13.2036298 11.8572314,13.1665229 C12.2661349,13.129416 13.1762241,12.6272602 13.3618799,12.1066722 C13.5475356,11.5860842 13.5476569,11.1400738 13.4919966,11.0468215 C13.4363362,10.9535692 13.2876661,10.8981514 13.0645396,10.7865882 C12.8414131,10.6750249 11.7455469,10.1357622 11.5412164,10.0613059 C11.3368859,9.98684955 11.1883371,9.94986391 11.0395457,10.1729904 C10.8907543,10.3961168 10.4640249,10.8980301 10.3339082,11.0468215 C10.2037915,11.1956129 10.0739174,11.2142876 9.85079091,11.1028457 C9.62766445,10.9914037 8.9097793,10.7559083 8.05801827,9.99642944 C7.39530842,9.4055081 6.94796411,8.67573904 6.81772616,8.45273384 C6.68748821,8.22972864 6.80390202,8.10894931 6.91570778,7.99787114 C7.0157509,7.89794928 7.13859172,7.73751651 7.25027621,7.60739982 C7.36196071,7.47728314 7.39870382,7.38427336 7.47291762,7.23572449 C7.54713142,7.08717562 7.51014579,6.95669514 7.45436417,6.84525317 C7.39858255,6.7338112 6.96542618,5.63127543 6.76728017,5.19035813" id="Path"></path>
        </g>
    </g>
</svg>